<svg xmlns="http://www.w3.org/2000/svg" width="80" height="80">
    <defs>
        <linearGradient id="02huv12wma" x1="0%" x2="68.899%" y1="0%" y2="72.477%">
            <stop offset="0%" stop-color="#314774"/>
            <stop offset="100%" stop-color="#2F3D5A"/>
        </linearGradient>
    </defs>
    <path fill="url(#02huv12wma)" fill-rule="evenodd" d="M74.667 80H5.333C2.388 80 0 77.612 0 74.666v-4c0-.736.597-1.333 1.333-1.333h1.334v-48C2.667 18.387 5.055 16 8 16h8V5.333c0-2.945 2.388-5.334 5.333-5.334h37.334C61.612-.001 64 2.388 64 5.333V16h8c2.946 0 5.333 2.387 5.333 5.333v48h1.334c.736 0 1.333.597 1.333 1.333v4C80 77.612 77.612 80 74.667 80zM61.333 5.333c0-1.473-1.193-2.667-2.666-2.667H21.333c-1.472 0-2.666 1.194-2.666 2.667v5.333h42.666V5.333zm0 8H18.667V52c0 1.473 1.194 2.666 2.666 2.666h37.334c1.473 0 2.666-1.193 2.666-2.666V13.333zm-2.666 44H21.333C18.388 57.333 16 54.945 16 52V24h-5.333v37.333h58.666V24H64v28c0 2.945-2.388 5.333-5.333 5.333zm16-36c0-1.473-1.194-2.666-2.667-2.666h-8v2.666h6.667c.736 0 1.333.596 1.333 1.333v40c0 .737-.597 1.334-1.333 1.334H9.333C8.597 64 8 63.403 8 62.666v-40c0-.737.597-1.333 1.333-1.333H16v-2.666H8c-1.473 0-2.667 1.193-2.667 2.666v48H28c.353 0 .693.14.943.39L31.219 72h17.562l2.276-2.277c.251-.25.59-.39.943-.39h22.667v-48zM77.333 72H52.552l-2.276 2.276c-.25.249-.589.39-.943.39H30.667c-.354 0-.693-.141-.943-.39L27.448 72H2.667v2.666c0 1.472 1.194 2.667 2.666 2.667h69.334c1.472 0 2.666-1.195 2.666-2.667V72zm-38.666-5.334h2.666v2.667h-2.666v-2.667zm-16-24h34.666v2.667H22.667v-2.667zm8-5.333h26.666v2.666H30.667v-2.666zm20.8-10.934l-5.334 4-1.6-2.133 3.911-2.933-3.911-2.934 1.6-2.133 5.334 4c.101.076.19.166.266.267.442.589.323 1.425-.266 1.866zm-15.372 5.107l5.335-13.332 2.476.991-5.335 13.331-2.476-.99zm-2.228-1.107l-5.334-4c-.101-.075-.191-.165-.266-.266-.442-.589-.323-1.425.266-1.867l5.334-4 1.6 2.133-3.911 2.934 3.911 2.933-1.6 2.133zm-8.534 6.934H28v2.666h-2.667v-2.666zm29.334 13.333h-32V48h32v2.666zM24 7.999h-2.667V5.333H24v2.666zm5.333 0h-2.666V5.333h2.666v2.666zm5.334 0H32V5.333h2.667v2.666z"/>
</svg>
