<svg xmlns="http://www.w3.org/2000/svg" width="73" height="80">
    <defs>
        <linearGradient id="8i2dhsdfla" x1="0%" x2="62.587%" y1="0%" y2="77.993%">
            <stop offset="0%" stop-color="#314774"/>
            <stop offset="100%" stop-color="#2F3D5A"/>
        </linearGradient>
    </defs>
    <path fill="url(#8i2dhsdfla)" fill-rule="evenodd" d="M71.341 55h-3.318v18.333c0 .92-.743 1.666-1.66 1.666h-1.658v3.333c0 .922-.743 1.668-1.659 1.668h-6.637c-.916 0-1.659-.746-1.659-1.668v-3.333h-1.659c-.917 0-1.659-.746-1.659-1.666V55h-3.318c-.917 0-1.66-.747-1.66-1.667v-6.667c0-.92.743-1.666 1.66-1.666h6.636V12.884c-1.026-.595-1.659-1.694-1.659-2.884V3.333c0-1.842 1.485-3.334 3.318-3.334h6.636c1.833 0 3.318 1.492 3.318 3.334V10c0 1.19-.633 2.289-1.658 2.884V45h6.636c.916 0 1.659.746 1.659 1.666v6.667c0 .92-.743 1.667-1.659 1.667zM58.068 76.666h3.318v-1.667h-3.318v1.667zm4.977-73.333h-6.636V10c.916 0 1.659.746 1.659 1.666V45h3.318V11.666c0-.92.743-1.666 1.659-1.666V3.333zm6.637 45H49.773v3.333h3.318l.012.001h8.283V55H54.75v16.666h9.954V53.333c0-.92.743-1.667 1.659-1.667h3.319v-3.333zM58.069 64.999h3.318v3.333h-3.318v-3.333zm0-6.667h3.318v3.334h-3.318v-3.334zm-27.04-25.954c-4.19 4.879-3.65 12.245 1.206 16.455 2.108 1.827 4.799 2.832 7.583 2.833V55c-8.246 0-14.932-6.717-14.931-15.001 0-8.284 6.685-15 14.932-15 3.583 0 7.046 1.295 9.758 3.648l-2.168 2.519c-4.857-4.209-12.19-3.666-16.38 1.212zm8.789 14.288c-3.665 0-6.636-2.985-6.636-6.667 0-3.681 2.971-6.666 6.636-6.666s6.636 2.985 6.636 6.666c0 3.682-2.971 6.667-6.636 6.667zm0-10c-1.832 0-3.318 1.492-3.318 3.333 0 1.842 1.486 3.333 3.318 3.333 1.833 0 3.318-1.491 3.318-3.333 0-1.841-1.485-3.333-3.318-3.333zm4.977-33.333h-9.954v9.155c0 .769-.525 1.439-1.269 1.62-2.668.647-5.217 1.709-7.557 3.148-.654.402-1.497.302-2.039-.243l-6.448-6.477-7.039 7.072 6.447 6.476c.541.545.641 1.39.242 2.047-1.431 2.352-2.489 4.914-3.134 7.593-.18.749-.846 1.275-1.612 1.275H3.318V45h9.114c.766 0 1.432.526 1.612 1.275.644 2.679 1.702 5.241 3.134 7.591.4.657.3 1.504-.242 2.049l-6.447 6.476 7.039 7.072 6.448-6.477c.542-.543 1.383-.644 2.037-.243 2.341 1.438 4.891 2.5 7.559 3.148.744.18 1.269.851 1.269 1.62v9.155h9.954v-6.667h3.319v8.334c0 .921-.743 1.667-1.66 1.667H33.182c-.916 0-1.659-.746-1.659-1.667v-9.541c-2.123-.615-4.171-1.468-6.104-2.543l-6.718 6.75c-.648.652-1.698.652-2.346 0l-9.387-9.43c-.647-.651-.647-1.705 0-2.357l6.718-6.747c-1.07-1.942-1.918-4-2.53-6.132H1.659C.743 48.333 0 47.587 0 46.666V33.333c0-.921.743-1.668 1.659-1.668h9.497c.613-2.132 1.462-4.188 2.531-6.13l-6.719-6.749c-.647-.651-.647-1.706 0-2.357l9.387-9.43c.648-.65 1.698-.65 2.346 0l6.718 6.75c1.933-1.074 3.981-1.927 6.104-2.543V1.667c0-.922.743-1.668 1.659-1.668h13.272c.917 0 1.66.746 1.66 1.668v6.666h-3.319v-5z"/>
</svg>
