<svg xmlns="http://www.w3.org/2000/svg" width="80" height="80">
    <defs>
        <linearGradient id="p6y5fqaioa" x1="0%" x2="69.774%" y1="0%" y2="71.635%">
            <stop offset="0%" stop-color="#314774"/>
            <stop offset="100%" stop-color="#2F3D5A"/>
        </linearGradient>
    </defs>
    <path fill="url(#p6y5fqaioa)" fill-rule="evenodd" d="M72.258 7.741v-2.58h-4.363c4.179 2.776 6.943 7.521 6.943 12.903h1.291c2.134 0 3.871 1.737 3.871 3.871v49.032c0 2.135-1.737 3.871-3.871 3.871H42.931l1.235 1.163c1.231 1.158 1.083 2.165.885 2.664-.198.499-.782 1.334-2.47 1.334H3.871C1.737 79.999 0 78.262 0 76.128V40c0-1.727.93-2.315 1.33-2.488.38-.164 1.365-.406 2.541.586V21.935c0-2.134 1.737-3.871 3.871-3.871h36.129c0-5.382 2.764-10.127 6.943-12.903h-4.362v2.58H38.71V0h7.742v2.58h25.806V0H80v7.741h-7.742zM43.871 2.579H41.29v2.582h2.581V2.579zm33.548 19.356c0-.711-.579-1.291-1.29-1.291h-1.511c-.013.078-.036.14-.059.199-.515 2.835-1.802 5.432-3.706 7.544h6.566v-6.452zM2.581 40.404v6.047h2.581v2.581H2.581v2.58h2.581v2.581H2.581v2.58h2.581v2.581H2.581v2.58h2.581v2.581H2.581v2.581h2.581v2.581H2.581v2.581h2.581v2.58H2.581v1.29c0 .713.579 1.291 1.29 1.291h38.038L19.973 56.773 16.08 53.11 2.581 40.404zm18.415 13.789H40V36.128H11.613v9.234l9.383 8.831zM6.452 40.504l2.58 2.428v-9.384h33.549v23.225H23.738L40.19 72.258h35.939c.711 0 1.29-.579 1.29-1.29v-40h-9.582c-.249.164-.481.345-.74.494v1.458c.778.589 1.29 1.515 1.29 2.563 0 .729-.252 1.395-.662 1.935.41.542.662 1.208.662 1.936 0 1.779-1.448 3.227-3.226 3.227H53.548c-1.778 0-3.226-1.448-3.226-3.227 0-.729.252-1.394.662-1.937-.41-.54-.662-1.206-.662-1.935 0-1.05.513-1.974 1.291-2.564v-1.457c-.26-.15-.492-.331-.741-.493H6.452v9.536zm58.709-1.795H53.548c-.356 0-.645.289-.645.645 0 .356.289.646.645.646h11.613c.356 0 .645-.29.645-.646 0-.356-.289-.645-.645-.645zm.645-3.226c0-.356-.289-.645-.645-.645H53.548c-.356 0-.645.289-.645.645 0 .356.289.645.645.645h11.613c.356 0 .645-.289.645-.645zM44.092 20.644H7.742c-.711 0-1.29.58-1.29 1.291v6.451h41.404c-1.945-2.157-3.25-4.818-3.741-7.722-.008-.007-.022-.01-.023-.02zm2.36-2.58c0 4.861 2.696 9.26 7.04 11.482l.702.361v2.351h3.871v-9.216c-2.22-.577-3.871-2.581-3.871-4.978 0-2.847 2.314-5.162 5.161-5.162 2.846 0 5.161 2.315 5.161 5.162 0 2.397-1.652 4.401-3.871 4.978v9.216h3.871v-2.351l.702-.361c4.343-2.222 7.04-6.621 7.04-11.482 0-7.115-5.788-12.903-12.903-12.903s-12.903 5.788-12.903 12.903zm12.903 2.58c1.423 0 2.58-1.157 2.581-2.58 0-1.423-1.158-2.581-2.581-2.581s-2.581 1.158-2.581 2.581 1.158 2.58 2.581 2.58zM77.419 2.579h-2.58v2.582h2.58V2.579zM20.645 25.806c-.712 0-1.29-.579-1.29-1.291 0-.713.578-1.29 1.29-1.29.713 0 1.29.577 1.29 1.29 0 .712-.577 1.291-1.29 1.291zm-5.161 0c-.713 0-1.29-.579-1.29-1.291 0-.713.577-1.29 1.29-1.29.713 0 1.29.577 1.29 1.29 0 .712-.577 1.291-1.29 1.291zm-5.161 0c-.713 0-1.291-.579-1.291-1.291 0-.713.578-1.29 1.291-1.29.712 0 1.29.577 1.29 1.29 0 .712-.578 1.291-1.29 1.291zm64.516 23.226H45.161v-2.581h29.678v2.581zm0 5.161H45.161v-2.581h29.678v2.581zm0 5.162H45.161v-2.582h29.678v2.582zm0 5.16H45.161v-2.581h29.678v2.581zM9.032 70.967V55.336L25.64 70.967H9.032zm2.581-2.581h7.52l-7.52-7.077v7.077z"/>
</svg>
