<svg xmlns="http://www.w3.org/2000/svg" width="80" height="80">
    <defs>
        <linearGradient id="ff6fw2z16a" x1="0%" x2="69.233%" y1="0%" y2="72.158%">
            <stop offset="0%" stop-color="#314774"/>
            <stop offset="100%" stop-color="#2F3D5A"/>
        </linearGradient>
    </defs>
    <path fill="url(#ff6fw2z16a)" fill-rule="evenodd" d="M74.195 14.203c.292.291.458.694.458 1.105 0 .411-.166.814-.458 1.104-.29.293-.693.459-1.104.459-.411 0-.813-.167-1.105-.459-.291-.29-.458-.693-.458-1.104 0-.411.167-.814.458-1.105.291-.29.694-.457 1.105-.457.411 0 .814.167 1.104.457zm-3.258 27.606c2.585 0 4.688 2.102 4.688 4.688v.376h2.813c.862 0 1.562.699 1.562 1.562v7.501c0 .863-.7 1.562-1.563 1.562H73.75v20.939c0 .863-.7 1.563-1.563 1.563h-6.25c-.863 0-1.562-.7-1.562-1.563V57.498h-17.11c-.862 0-1.562-.699-1.562-1.562 0-.863.7-1.563 1.562-1.563h29.61v-4.375H3.125v4.375h30.234c.863 0 1.563.7 1.563 1.563s-.7 1.562-1.563 1.562H15.623v20.939c0 .863-.7 1.563-1.563 1.563H7.811c-.863 0-1.563-.7-1.563-1.563V57.498H1.563C.7 57.498 0 56.799 0 55.936v-7.501c0-4.308 3.505-7.813 7.813-7.813h.976L.182 24.413c-.322-.608-.209-1.356.278-1.841l12.055-11.994-.319-.319c-1.403-1.403-1.403-3.685 0-5.088l4.119-4.12c1.403-1.402 3.685-1.402 5.087 0l3.121 3.121c3.328-.498 6.843.529 9.4 3.087l2.773 2.773 9.49 3.654c.806.31 1.207 1.215.897 2.02-.239.621-.831 1.002-1.458 1.002-.187 0-.377-.034-.562-.105l-8.851-3.409-11.873 11.874 3.406 8.809c.311.805-.089 1.709-.894 2.021-.185.072-.375.106-.563.106-.627 0-1.218-.38-1.457-1l-3.655-9.449-2.774-2.775c-2.072-2.073-3.214-4.829-3.214-7.761 0-.556.041-1.106.122-1.646l-.585-.585L3.486 23.971l8.841 16.651h1.417v-.605c0-.863.7-1.563 1.563-1.563s1.562.7 1.562 1.563v.605h1.412c3.773 0 6.93 2.689 7.656 6.251h27.344v-6.94H42.266c-2.973 0-5.391-2.418-5.391-5.391V19.05c0-.863.7-1.562 1.562-1.562.863 0 1.563.699 1.563 1.562v10.258h16.955c.066-.112.145-.218.241-.314l11.092-11.093c.611-.609 1.6-.609 2.21 0 .61.611.61 1.6 0 2.21l-9.196 9.197h15.573V12.822c0-1.249-1.017-2.265-2.266-2.265H61.456l-9.598 9.599c-.305.304-.705.457-1.105.457s-.799-.153-1.104-.457c-.611-.611-.611-1.601 0-2.211l7.388-7.388H42.266c-.863 0-1.563-.7-1.563-1.563s.7-1.562 1.563-1.562h32.343c2.972 0 5.391 2.418 5.391 5.39v21.72c0 2.973-2.419 5.391-5.391 5.391H63.594v6.94h2.656v-.376c0-2.586 2.103-4.688 4.687-4.688zm-.312 15.689H67.5v19.376h3.125V57.498zm-1.25-10.69H72.5v-.311c0-.862-.701-1.564-1.563-1.564-.861 0-1.562.702-1.562 1.564v.311zM9.373 76.874h3.125V57.498H9.373v19.376zM20.612 20.57l1.903 1.903 11.101-11.102-1.903-1.902c-.116-.117-.236-.228-.359-.336l-7.406 7.408c-.305.304-.705.457-1.105.457s-.799-.153-1.105-.457c-.61-.611-.61-1.601 0-2.211l6.797-6.797c-.758-.238-1.555-.364-2.372-.364-2.097 0-4.068.817-5.551 2.3-1.483 1.482-2.299 3.454-2.299 5.551 0 2.096.816 4.068 2.299 5.55zM14.405 8.049l1.98 1.98c.517-1.01 1.192-1.946 2.017-2.77.835-.836 1.774-1.505 2.773-2.015l-1.983-1.983c-.183-.184-.483-.184-.667 0l-4.119 4.121c-.184.183-.184.483-.001.667zm3.876 35.698h-6.887l-.005.001-.005-.001H7.812c-2.037 0-3.774 1.307-4.419 3.126h19.308c-.645-1.819-2.383-3.126-4.42-3.126zm38.125 3.126h4.063v-6.94h-4.063v6.94zm18.203-10.065c1.249 0 2.266-1.016 2.266-2.266v-2.109H40v2.109c0 1.25 1.016 2.266 2.266 2.266h32.343zm-16.172-3.75c.411 0 .814.168 1.105.457.291.292.458.695.458 1.105 0 .411-.167.815-.458 1.105-.291.291-.694.458-1.105.458-.41 0-.814-.168-1.104-.458-.291-.29-.458-.694-.458-1.105 0-.412.167-.813.458-1.105.29-.29.694-.457 1.104-.457zM40.625 54.373c.411 0 .814.168 1.105.458.29.291.457.694.458 1.105 0 .411-.168.813-.458 1.104-.292.292-.694.458-1.105.458-.411 0-.814-.166-1.105-.458-.29-.291-.457-.693-.457-1.104 0-.411.167-.814.457-1.105.291-.29.694-.458 1.105-.458z"/>
</svg>
