<?xml version="1.0" encoding="UTF-8" standalone="no"?>
<svg width="168px" height="46px" viewBox="0 0 168 46" version="1.1" xmlns="http://www.w3.org/2000/svg" xmlns:xlink="http://www.w3.org/1999/xlink">
    <!-- Generator: Sketch 47.1 (45422) - http://www.bohemiancoding.com/sketch -->
    <title>Page 1</title>
    <desc>Created with Sketch.</desc>
    <defs>
        <polygon id="path-1" points="0 46 168 46 168 0 0 0"></polygon>
    </defs>
    <g id="Mainpage" stroke="none" stroke-width="1" fill="none" fill-rule="evenodd">
        <g id="Concept" transform="translate(-119.000000, -24.000000)">
            <g id="Page-1" transform="translate(119.000000, 24.000000)">
                <polygon id="Fill-1" fill="#FFFFFF" points="149.079 3.3994 147.998846 8.72461875 157.173872 8.72461875 143.975821 24.6988375 163.348949 24.6988375 164.402538 19.3743375 154.816128 19.358525 167.999103 3.4008375 167.999103 3.3994"></polygon>
                <g id="Group-12">
                    <path d="M137.76499,16.4519359 C135.973708,19.4059984 132.670426,20.7960609 130.389503,19.5583734 C128.108579,18.3199672 127.713349,14.9199203 129.507144,11.9654984 C131.300579,9.01143594 134.602785,7.62101406 136.882631,8.85942031 C139.164631,10.0960297 139.559862,13.4964359 137.76499,16.4519359 L137.76499,16.4519359 Z M140.179092,3.38290469 L139.847041,5.01806094 C136.147092,1.30356094 129.655041,2.36767031 125.676169,7.18329531 C121.178579,12.6217172 120.793759,18.9258734 124.124682,22.7273422 C126.883759,25.8772641 132.1334,25.9491391 136.200221,23.3055766 L135.924528,24.6992328 L142.172836,24.6992328 L146.389708,3.39907656 L140.179092,3.38290469 Z" id="Fill-2" fill="#FFFFFF"></path>
                    <polygon id="Fill-4" fill="#FFFFFF" points="61.8599692 8.72465469 66.2172 3.39907656 60.3730974 3.39907656 56.5902256 3.39907656 54.8897641 3.39907656 53.9865846 3.39907656 48.9918154 3.39907656 48.5046872 3.39907656 43.4916103 3.39907656 42.445559 8.72465469 47.4615077 8.72465469 47.947559 8.72465469 49.5274051 8.72465469 45.2897128 30.0251703 46.183559 30.0251703 49.7205333 30.0251703 51.4978154 30.0251703 55.8920205 8.72465469 59.3274051 8.72465469"></polygon>
                    <path d="M112.177549,15.8163453 C110.442626,18.7614234 107.172369,20.1723297 104.874215,18.9641109 C102.574985,17.7576891 102.118728,14.3932203 103.85401,11.4467047 C105.588933,8.50162656 108.860267,7.09107969 111.158421,8.29929844 C113.456574,9.50464219 113.913549,12.8712672 112.177549,15.8163453 M116.83919,4.50465781 C113.625292,1.68428281 109.142779,2.04006406 105.159241,4.99520469 L105.475138,3.39922031 L99.2139077,3.39922031 L92.8851897,35.3447828 L99.1507282,35.3447828 L101.678626,22.5733141 C105.193703,26.2306734 111.651292,24.9969391 116.000267,20.3300953 C120.692062,15.2974078 121.067549,8.21232969 116.83919,4.50465781" id="Fill-6" fill="#FFFFFF"></path>
                    <path d="M85.9410462,19.5199563 C83.0545333,24.8419406 77.4312,27.5228781 73.3783795,25.5082219 C69.3269949,23.4917688 68.3846872,17.5430344 71.2712,12.2199719 C74.1587897,6.8979875 79.7832,4.21705 83.8335077,6.2338625 C87.8852513,8.24815938 88.8282769,14.1965344 85.9410462,19.5199563 M90.2936103,3.09544062 C84.4771487,-2.10399688 74.5285333,-0.599653125 68.0734564,6.45559688 C61.6180205,13.5097687 61.1032513,23.4457687 66.9186359,28.6455656 C72.7372513,33.843925 82.6844308,32.3395813 89.1409436,25.2843313 C95.5953026,18.2290813 96.1111487,8.29415937 90.2936103,3.09544062" id="Fill-8" fill="#FFFFFF"></path>
                    <mask id="mask-2" fill="white">
                        <use xlink:href="#path-1"></use>
                    </mask>
                    <g id="Clip-11"></g>
                    <polygon id="Fill-10" fill="#FFFFFF" mask="url(#mask-2)" points="0 46 168 46 168 40.6747813 0 40.6747813"></polygon>
                </g>
            </g>
        </g>
    </g>
</svg>